<svg width="96" height="96" viewBox="0 0 96 96" fill="none" xmlns="http://www.w3.org/2000/svg">
  <rect width="96" height="96" rx="24" fill="#f5e9df"/>
  <path d="M60 24c0 4-4 6-4 10s4 6 4 10" stroke="#8b6b56" stroke-width="4" stroke-linecap="round"/>
  <path d="M48 20c0 4-4 6-4 10s4 6 4 10" stroke="#8b6b56" stroke-width="4" stroke-linecap="round"/>
  <path d="M28 38h40v22a12 12 0 0 1-12 12H40a12 12 0 0 1-12-12V38Z" stroke="#5a4a42" stroke-width="4" stroke-linejoin="round"/>
  <path d="M68 42h6a8 8 0 0 1 0 16h-6" stroke="#5a4a42" stroke-width="4" stroke-linecap="round" stroke-linejoin="round"/>
  <path d="M28 60h40" stroke="#8b6b56" stroke-width="4" stroke-linecap="round"/>
</svg>

